<svg width="685" height="130" viewBox="0 0 685 130" fill="none" xmlns="http://www.w3.org/2000/svg">
<path d="M281.751 93L278.551 87.44H276.811V93H274.531V79.1H279.331C280.398 79.1 281.298 79.2867 282.031 79.66C282.778 80.0333 283.331 80.5333 283.691 81.16C284.065 81.7867 284.251 82.4867 284.251 83.26C284.251 84.1667 283.985 84.9933 283.451 85.74C282.931 86.4733 282.125 86.9733 281.031 87.24L284.471 93H281.751ZM276.811 85.62H279.331C280.185 85.62 280.825 85.4067 281.251 84.98C281.691 84.5533 281.911 83.98 281.911 83.26C281.911 82.54 281.698 81.98 281.271 81.58C280.845 81.1667 280.198 80.96 279.331 80.96H276.811V85.62ZM297.268 87.22C297.268 87.6333 297.241 88.0067 297.188 88.34H288.768C288.835 89.22 289.161 89.9267 289.748 90.46C290.335 90.9933 291.055 91.26 291.908 91.26C293.135 91.26 294.001 90.7467 294.508 89.72H296.968C296.635 90.7333 296.028 91.5667 295.148 92.22C294.281 92.86 293.201 93.18 291.908 93.18C290.855 93.18 289.908 92.9467 289.068 92.48C288.241 92 287.588 91.3333 287.108 90.48C286.641 89.6133 286.408 88.6133 286.408 87.48C286.408 86.3467 286.635 85.3533 287.088 84.5C287.555 83.6333 288.201 82.9667 289.028 82.5C289.868 82.0333 290.828 81.8 291.908 81.8C292.948 81.8 293.875 82.0267 294.688 82.48C295.501 82.9333 296.135 83.5733 296.588 84.4C297.041 85.2133 297.268 86.1533 297.268 87.22ZM294.888 86.5C294.875 85.66 294.575 84.9867 293.988 84.48C293.401 83.9733 292.675 83.72 291.808 83.72C291.021 83.72 290.348 83.9733 289.788 84.48C289.228 84.9733 288.895 85.6467 288.788 86.5H294.888ZM305.072 81.8C305.938 81.8 306.712 81.98 307.392 82.34C308.085 82.7 308.625 83.2333 309.012 83.94C309.398 84.6467 309.592 85.5 309.592 86.5V93H307.332V86.84C307.332 85.8533 307.085 85.1 306.592 84.58C306.098 84.0467 305.425 83.78 304.572 83.78C303.718 83.78 303.038 84.0467 302.532 84.58C302.038 85.1 301.792 85.8533 301.792 86.84V93H299.512V81.98H301.792V83.24C302.165 82.7867 302.638 82.4333 303.212 82.18C303.798 81.9267 304.418 81.8 305.072 81.8ZM315.16 83.84V89.94C315.16 90.3533 315.253 90.6533 315.44 90.84C315.64 91.0133 315.973 91.1 316.44 91.1H317.84V93H316.04C315.013 93 314.227 92.76 313.68 92.28C313.133 91.8 312.86 91.02 312.86 89.94V83.84H311.56V81.98H312.86V79.24H315.16V81.98H317.84V83.84H315.16ZM330.041 87.22C330.041 87.6333 330.015 88.0067 329.961 88.34H321.541C321.608 89.22 321.935 89.9267 322.521 90.46C323.108 90.9933 323.828 91.26 324.681 91.26C325.908 91.26 326.775 90.7467 327.281 89.72H329.741C329.408 90.7333 328.801 91.5667 327.921 92.22C327.055 92.86 325.975 93.18 324.681 93.18C323.628 93.18 322.681 92.9467 321.841 92.48C321.015 92 320.361 91.3333 319.881 90.48C319.415 89.6133 319.181 88.6133 319.181 87.48C319.181 86.3467 319.408 85.3533 319.861 84.5C320.328 83.6333 320.975 82.9667 321.801 82.5C322.641 82.0333 323.601 81.8 324.681 81.8C325.721 81.8 326.648 82.0267 327.461 82.48C328.275 82.9333 328.908 83.5733 329.361 84.4C329.815 85.2133 330.041 86.1533 330.041 87.22ZM327.661 86.5C327.648 85.66 327.348 84.9867 326.761 84.48C326.175 83.9733 325.448 83.72 324.581 83.72C323.795 83.72 323.121 83.9733 322.561 84.48C322.001 84.9733 321.668 85.6467 321.561 86.5H327.661ZM334.565 83.58C334.898 83.02 335.338 82.5867 335.885 82.28C336.445 81.96 337.105 81.8 337.865 81.8V84.16H337.285C336.392 84.16 335.712 84.3867 335.245 84.84C334.792 85.2933 334.565 86.08 334.565 87.2V93H332.285V81.98H334.565V83.58ZM355.216 83.1C354.856 82.4067 354.356 81.8867 353.716 81.54C353.076 81.18 352.336 81 351.496 81C350.576 81 349.756 81.2067 349.036 81.62C348.316 82.0333 347.75 82.62 347.336 83.38C346.936 84.14 346.736 85.02 346.736 86.02C346.736 87.02 346.936 87.9067 347.336 88.68C347.75 89.44 348.316 90.0267 349.036 90.44C349.756 90.8533 350.576 91.06 351.496 91.06C352.736 91.06 353.743 90.7133 354.516 90.02C355.29 89.3267 355.763 88.3867 355.936 87.2H350.716V85.38H358.376V87.16C358.23 88.24 357.843 89.2333 357.216 90.14C356.603 91.0467 355.796 91.7733 354.796 92.32C353.81 92.8533 352.71 93.12 351.496 93.12C350.19 93.12 348.996 92.82 347.916 92.22C346.836 91.6067 345.976 90.76 345.336 89.68C344.71 88.6 344.396 87.38 344.396 86.02C344.396 84.66 344.71 83.44 345.336 82.36C345.976 81.28 346.836 80.44 347.916 79.84C349.01 79.2267 350.203 78.92 351.496 78.92C352.976 78.92 354.29 79.2867 355.436 80.02C356.596 80.74 357.436 81.7667 357.956 83.1H355.216ZM370.605 81.98V93H368.325V91.7C367.965 92.1533 367.492 92.5133 366.905 92.78C366.332 93.0333 365.718 93.16 365.065 93.16C364.198 93.16 363.418 92.98 362.725 92.62C362.045 92.26 361.505 91.7267 361.105 91.02C360.718 90.3133 360.525 89.46 360.525 88.46V81.98H362.785V88.12C362.785 89.1067 363.032 89.8667 363.525 90.4C364.018 90.92 364.692 91.18 365.545 91.18C366.398 91.18 367.072 90.92 367.565 90.4C368.072 89.8667 368.325 89.1067 368.325 88.12V81.98H370.605ZM374.773 80.52C374.36 80.52 374.013 80.38 373.733 80.1C373.453 79.82 373.313 79.4733 373.313 79.06C373.313 78.6467 373.453 78.3 373.733 78.02C374.013 77.74 374.36 77.6 374.773 77.6C375.173 77.6 375.513 77.74 375.793 78.02C376.073 78.3 376.213 78.6467 376.213 79.06C376.213 79.4733 376.073 79.82 375.793 80.1C375.513 80.38 375.173 80.52 374.773 80.52ZM375.893 81.98V93H373.613V81.98H375.893ZM378.127 87.44C378.127 86.3333 378.353 85.3533 378.807 84.5C379.273 83.6467 379.9 82.9867 380.687 82.52C381.487 82.04 382.373 81.8 383.347 81.8C384.067 81.8 384.773 81.96 385.467 82.28C386.173 82.5867 386.733 83 387.147 83.52V78.2H389.447V93H387.147V91.34C386.773 91.8733 386.253 92.3133 385.587 92.66C384.933 93.0067 384.18 93.18 383.327 93.18C382.367 93.18 381.487 92.94 380.687 92.46C379.9 91.9667 379.273 91.2867 378.807 90.42C378.353 89.54 378.127 88.5467 378.127 87.44ZM387.147 87.48C387.147 86.72 386.987 86.06 386.667 85.5C386.36 84.94 385.953 84.5133 385.447 84.22C384.94 83.9267 384.393 83.78 383.807 83.78C383.22 83.78 382.673 83.9267 382.167 84.22C381.66 84.5 381.247 84.92 380.927 85.48C380.62 86.0267 380.467 86.68 380.467 87.44C380.467 88.2 380.62 88.8667 380.927 89.44C381.247 90.0133 381.66 90.4533 382.167 90.76C382.687 91.0533 383.233 91.2 383.807 91.2C384.393 91.2 384.94 91.0533 385.447 90.76C385.953 90.4667 386.36 90.04 386.667 89.48C386.987 88.9067 387.147 88.24 387.147 87.48ZM402.541 87.22C402.541 87.6333 402.515 88.0067 402.461 88.34H394.041C394.108 89.22 394.435 89.9267 395.021 90.46C395.608 90.9933 396.328 91.26 397.181 91.26C398.408 91.26 399.275 90.7467 399.781 89.72H402.241C401.908 90.7333 401.301 91.5667 400.421 92.22C399.555 92.86 398.475 93.18 397.181 93.18C396.128 93.18 395.181 92.9467 394.341 92.48C393.515 92 392.861 91.3333 392.381 90.48C391.915 89.6133 391.681 88.6133 391.681 87.48C391.681 86.3467 391.908 85.3533 392.361 84.5C392.828 83.6333 393.475 82.9667 394.301 82.5C395.141 82.0333 396.101 81.8 397.181 81.8C398.221 81.8 399.148 82.0267 399.961 82.48C400.775 82.9333 401.408 83.5733 401.861 84.4C402.315 85.2133 402.541 86.1533 402.541 87.22ZM400.161 86.5C400.148 85.66 399.848 84.9867 399.261 84.48C398.675 83.9733 397.948 83.72 397.081 83.72C396.295 83.72 395.621 83.9733 395.061 84.48C394.501 84.9733 394.168 85.6467 394.061 86.5H400.161ZM408.785 93.18C407.918 93.18 407.138 93.0267 406.445 92.72C405.765 92.4 405.225 91.9733 404.825 91.44C404.425 90.8933 404.212 90.2867 404.185 89.62H406.545C406.585 90.0867 406.805 90.48 407.205 90.8C407.618 91.1067 408.132 91.26 408.745 91.26C409.385 91.26 409.878 91.14 410.225 90.9C410.585 90.6467 410.765 90.3267 410.765 89.94C410.765 89.5267 410.565 89.22 410.165 89.02C409.778 88.82 409.158 88.6 408.305 88.36C407.478 88.1333 406.805 87.9133 406.285 87.7C405.765 87.4867 405.312 87.16 404.925 86.72C404.552 86.28 404.365 85.7 404.365 84.98C404.365 84.3933 404.538 83.86 404.885 83.38C405.232 82.8867 405.725 82.5 406.365 82.22C407.018 81.94 407.765 81.8 408.605 81.8C409.858 81.8 410.865 82.12 411.625 82.76C412.398 83.3867 412.812 84.2467 412.865 85.34H410.585C410.545 84.8467 410.345 84.4533 409.985 84.16C409.625 83.8667 409.138 83.72 408.525 83.72C407.925 83.72 407.465 83.8333 407.145 84.06C406.825 84.2867 406.665 84.5867 406.665 84.96C406.665 85.2533 406.772 85.5 406.985 85.7C407.198 85.9 407.458 86.06 407.765 86.18C408.072 86.2867 408.525 86.4267 409.125 86.6C409.925 86.8133 410.578 87.0333 411.085 87.26C411.605 87.4733 412.052 87.7933 412.425 88.22C412.798 88.6467 412.992 89.2133 413.005 89.92C413.005 90.5467 412.832 91.1067 412.485 91.6C412.138 92.0933 411.645 92.48 411.005 92.76C410.378 93.04 409.638 93.18 408.785 93.18Z" fill="#3B3C45"/>
<path d="M358.553 18.7604L343 5.86811L327.448 18.7604V25.5453H323.7V21.867L321.392 23.7805L319 20.8951L343 1L367.001 20.8951L364.609 23.7805L362.301 21.867V25.5453H358.553V18.7604ZM332.694 48.9685H341.22V45.2206H336.442V39.9738H341.22V36.2263H336.442V32.4785H341.22V28.731H332.694V48.9685ZM357.054 32.4785H360.146V48.9685H363.894V32.4785H366.986V28.731H357.054V32.4785ZM327.067 39.4212L330.322 48.9685H326.362L323.296 39.9742H322.763V48.9685H319.015V28.731H324.637C327.736 28.731 330.258 31.2528 330.258 34.3524C330.258 36.5823 328.953 38.513 327.067 39.4212ZM322.763 36.2263H324.637C325.67 36.2263 326.51 35.3855 326.51 34.3524C326.51 33.3193 325.67 32.4785 324.637 32.4785H322.763V36.2263ZM350.964 38.1797L347.573 28.8409L347.497 28.868V28.731H343.75V48.9685H347.497V39.6131L350.889 48.9523L350.964 48.9252V48.9685H354.712V28.731H350.964V38.1797Z" fill="#3B3C45"/>
<mask id="mask0_2_550" style="mask-type:alpha" maskUnits="userSpaceOnUse" x="319" y="1" width="49" height="48">
<path d="M358.553 18.7604L343 5.86811L327.448 18.7604V25.5453H323.7V21.867L321.392 23.7805L319 20.8951L343 1L367.001 20.8951L364.609 23.7805L362.301 21.867V25.5453H358.553V18.7604ZM332.694 48.9685H341.22V45.2206H336.442V39.9738H341.22V36.2263H336.442V32.4785H341.22V28.731H332.694V48.9685ZM357.054 32.4785H360.146V48.9685H363.894V32.4785H366.986V28.731H357.054V32.4785ZM327.067 39.4212L330.322 48.9685H326.362L323.296 39.9742H322.763V48.9685H319.015V28.731H324.637C327.736 28.731 330.258 31.2528 330.258 34.3524C330.258 36.5823 328.953 38.513 327.067 39.4212ZM322.763 36.2263H324.637C325.67 36.2263 326.51 35.3855 326.51 34.3524C326.51 33.3193 325.67 32.4785 324.637 32.4785H322.763V36.2263ZM350.964 38.1797L347.573 28.8409L347.497 28.868V28.731H343.75V48.9685H347.497V39.6131L350.889 48.9523L350.964 48.9252V48.9685H354.712V28.731H350.964V38.1797Z" fill="#3B3C45"/>
</mask>
<g mask="url(#mask0_2_550)">
<rect x="315.4" y="26.1998" width="54.0008" height="25.2004" fill="#F7A804"/>
</g>
<path d="M296.178 112.228V122H294.218V117.842H290.032V122H288.072V112.228H290.032V116.246H294.218V112.228H296.178ZM301.552 122.126C300.805 122.126 300.133 121.963 299.536 121.636C298.938 121.3 298.467 120.829 298.122 120.222C297.786 119.615 297.618 118.915 297.618 118.122C297.618 117.329 297.79 116.629 298.136 116.022C298.49 115.415 298.971 114.949 299.578 114.622C300.184 114.286 300.861 114.118 301.608 114.118C302.354 114.118 303.031 114.286 303.638 114.622C304.244 114.949 304.72 115.415 305.066 116.022C305.42 116.629 305.598 117.329 305.598 118.122C305.598 118.915 305.416 119.615 305.052 120.222C304.697 120.829 304.212 121.3 303.596 121.636C302.989 121.963 302.308 122.126 301.552 122.126ZM301.552 120.418C301.906 120.418 302.238 120.334 302.546 120.166C302.863 119.989 303.115 119.727 303.302 119.382C303.488 119.037 303.582 118.617 303.582 118.122C303.582 117.385 303.386 116.82 302.994 116.428C302.611 116.027 302.14 115.826 301.58 115.826C301.02 115.826 300.548 116.027 300.166 116.428C299.792 116.82 299.606 117.385 299.606 118.122C299.606 118.859 299.788 119.429 300.152 119.83C300.525 120.222 300.992 120.418 301.552 120.418ZM317.787 114.244L315.519 122H313.405L311.991 116.582L310.577 122H308.449L306.167 114.244H308.155L309.527 120.152L311.011 114.244H313.083L314.539 120.138L315.911 114.244H317.787ZM324.466 115.854V119.606C324.466 119.867 324.526 120.059 324.648 120.18C324.778 120.292 324.993 120.348 325.292 120.348H326.202V122H324.97C323.318 122 322.492 121.197 322.492 119.592V115.854H321.568V114.244H322.492V112.326H324.466V114.244H326.202V115.854H324.466ZM331.056 122.126C330.309 122.126 329.637 121.963 329.04 121.636C328.442 121.3 327.971 120.829 327.626 120.222C327.29 119.615 327.122 118.915 327.122 118.122C327.122 117.329 327.294 116.629 327.64 116.022C327.994 115.415 328.475 114.949 329.082 114.622C329.688 114.286 330.365 114.118 331.112 114.118C331.858 114.118 332.535 114.286 333.142 114.622C333.748 114.949 334.224 115.415 334.57 116.022C334.924 116.629 335.102 117.329 335.102 118.122C335.102 118.915 334.92 119.615 334.556 120.222C334.201 120.829 333.716 121.3 333.1 121.636C332.493 121.963 331.812 122.126 331.056 122.126ZM331.056 120.418C331.41 120.418 331.742 120.334 332.05 120.166C332.367 119.989 332.619 119.727 332.806 119.382C332.992 119.037 333.086 118.617 333.086 118.122C333.086 117.385 332.89 116.82 332.498 116.428C332.115 116.027 331.644 115.826 331.084 115.826C330.524 115.826 330.052 116.027 329.67 116.428C329.296 116.82 329.11 117.385 329.11 118.122C329.11 118.859 329.292 119.429 329.656 119.83C330.029 120.222 330.496 120.418 331.056 120.418ZM341.835 115.448C342.087 115.037 342.414 114.715 342.815 114.482C343.226 114.249 343.693 114.132 344.215 114.132V116.19H343.697C343.081 116.19 342.615 116.335 342.297 116.624C341.989 116.913 341.835 117.417 341.835 118.136V122H339.875V114.244H341.835V115.448ZM352.745 117.954C352.745 118.234 352.727 118.486 352.689 118.71H347.019C347.066 119.27 347.262 119.709 347.607 120.026C347.953 120.343 348.377 120.502 348.881 120.502C349.609 120.502 350.127 120.189 350.435 119.564H352.549C352.325 120.311 351.896 120.927 351.261 121.412C350.627 121.888 349.847 122.126 348.923 122.126C348.177 122.126 347.505 121.963 346.907 121.636C346.319 121.3 345.857 120.829 345.521 120.222C345.195 119.615 345.031 118.915 345.031 118.122C345.031 117.319 345.195 116.615 345.521 116.008C345.848 115.401 346.305 114.935 346.893 114.608C347.481 114.281 348.158 114.118 348.923 114.118C349.661 114.118 350.319 114.277 350.897 114.594C351.485 114.911 351.938 115.364 352.255 115.952C352.582 116.531 352.745 117.198 352.745 117.954ZM350.715 117.394C350.706 116.89 350.524 116.489 350.169 116.19C349.815 115.882 349.381 115.728 348.867 115.728C348.382 115.728 347.971 115.877 347.635 116.176C347.309 116.465 347.108 116.871 347.033 117.394H350.715ZM358.474 114.132C359.398 114.132 360.145 114.426 360.714 115.014C361.283 115.593 361.568 116.405 361.568 117.45V122H359.608V117.716C359.608 117.1 359.454 116.629 359.146 116.302C358.838 115.966 358.418 115.798 357.886 115.798C357.345 115.798 356.915 115.966 356.598 116.302C356.29 116.629 356.136 117.1 356.136 117.716V122H354.176V114.244H356.136V115.21C356.397 114.874 356.729 114.613 357.13 114.426C357.541 114.23 357.989 114.132 358.474 114.132ZM365.714 115.854V119.606C365.714 119.867 365.774 120.059 365.896 120.18C366.026 120.292 366.241 120.348 366.54 120.348H367.45V122H366.218C364.566 122 363.74 121.197 363.74 119.592V115.854H362.816V114.244H363.74V112.326H365.714V114.244H367.45V115.854H365.714Z" fill="#0689FF"/>
<g clip-path="url(#clip0_2_550)">
<path d="M397.24 121.68C397.113 121.85 396.923 121.962 396.713 121.992C396.503 122.022 396.29 121.967 396.12 121.84C395.95 121.713 395.838 121.523 395.808 121.313C395.778 121.103 395.833 120.89 395.96 120.72L397.4 118.8L376.8 118.8C376.588 118.8 376.384 118.716 376.234 118.566C376.084 118.416 376 118.212 376 118C376 117.788 376.084 117.584 376.234 117.434C376.384 117.284 376.588 117.2 376.8 117.2L397.4 117.2L395.96 115.28C395.897 115.196 395.851 115.1 395.825 114.999C395.799 114.897 395.793 114.791 395.808 114.687C395.823 114.583 395.858 114.483 395.912 114.392C395.965 114.302 396.036 114.223 396.12 114.16C396.204 114.097 396.3 114.051 396.401 114.025C396.503 113.999 396.609 113.993 396.713 114.008C396.817 114.023 396.917 114.058 397.008 114.112C397.098 114.165 397.177 114.236 397.24 114.32L399.635 117.514L399.646 117.527L400 118L399.646 118.472L399.635 118.486L397.24 121.68Z" fill="#0689FF"/>
</g>
<path d="M560.336 93.14C559.403 93.14 558.563 92.98 557.816 92.66C557.069 92.3267 556.483 91.86 556.056 91.26C555.629 90.66 555.416 89.96 555.416 89.16H557.856C557.909 89.76 558.143 90.2533 558.556 90.64C558.983 91.0267 559.576 91.22 560.336 91.22C561.123 91.22 561.736 91.0333 562.176 90.66C562.616 90.2733 562.836 89.78 562.836 89.18C562.836 88.7133 562.696 88.3333 562.416 88.04C562.149 87.7467 561.809 87.52 561.396 87.36C560.996 87.2 560.436 87.0267 559.716 86.84C558.809 86.6 558.069 86.36 557.496 86.12C556.936 85.8667 556.456 85.48 556.056 84.96C555.656 84.44 555.456 83.7467 555.456 82.88C555.456 82.08 555.656 81.38 556.056 80.78C556.456 80.18 557.016 79.72 557.736 79.4C558.456 79.08 559.289 78.92 560.236 78.92C561.583 78.92 562.683 79.26 563.536 79.94C564.403 80.6067 564.883 81.5267 564.976 82.7H562.456C562.416 82.1933 562.176 81.76 561.736 81.4C561.296 81.04 560.716 80.86 559.996 80.86C559.343 80.86 558.809 81.0267 558.396 81.36C557.983 81.6933 557.776 82.1733 557.776 82.8C557.776 83.2267 557.903 83.58 558.156 83.86C558.423 84.1267 558.756 84.34 559.156 84.5C559.556 84.66 560.103 84.8333 560.796 85.02C561.716 85.2733 562.463 85.5267 563.036 85.78C563.623 86.0333 564.116 86.4267 564.516 86.96C564.929 87.48 565.136 88.18 565.136 89.06C565.136 89.7667 564.943 90.4333 564.556 91.06C564.183 91.6867 563.629 92.1933 562.896 92.58C562.176 92.9533 561.323 93.14 560.336 93.14ZM577.926 87.22C577.926 87.6333 577.9 88.0067 577.846 88.34H569.426C569.493 89.22 569.82 89.9267 570.406 90.46C570.993 90.9933 571.713 91.26 572.566 91.26C573.793 91.26 574.66 90.7467 575.166 89.72H577.626C577.293 90.7333 576.686 91.5667 575.806 92.22C574.94 92.86 573.86 93.18 572.566 93.18C571.513 93.18 570.566 92.9467 569.726 92.48C568.9 92 568.246 91.3333 567.766 90.48C567.3 89.6133 567.066 88.6133 567.066 87.48C567.066 86.3467 567.293 85.3533 567.746 84.5C568.213 83.6333 568.86 82.9667 569.686 82.5C570.526 82.0333 571.486 81.8 572.566 81.8C573.606 81.8 574.533 82.0267 575.346 82.48C576.16 82.9333 576.793 83.5733 577.246 84.4C577.7 85.2133 577.926 86.1533 577.926 87.22ZM575.546 86.5C575.533 85.66 575.233 84.9867 574.646 84.48C574.06 83.9733 573.333 83.72 572.466 83.72C571.68 83.72 571.006 83.9733 570.446 84.48C569.886 84.9733 569.553 85.6467 569.446 86.5H575.546ZM582.45 78.2V93H580.17V78.2H582.45ZM587.723 78.2V93H585.443V78.2H587.723ZM600.817 87.22C600.817 87.6333 600.79 88.0067 600.737 88.34H592.317C592.383 89.22 592.71 89.9267 593.297 90.46C593.883 90.9933 594.603 91.26 595.457 91.26C596.683 91.26 597.55 90.7467 598.057 89.72H600.517C600.183 90.7333 599.577 91.5667 598.697 92.22C597.83 92.86 596.75 93.18 595.457 93.18C594.403 93.18 593.457 92.9467 592.617 92.48C591.79 92 591.137 91.3333 590.657 90.48C590.19 89.6133 589.957 88.6133 589.957 87.48C589.957 86.3467 590.183 85.3533 590.637 84.5C591.103 83.6333 591.75 82.9667 592.577 82.5C593.417 82.0333 594.377 81.8 595.457 81.8C596.497 81.8 597.423 82.0267 598.237 82.48C599.05 82.9333 599.683 83.5733 600.137 84.4C600.59 85.2133 600.817 86.1533 600.817 87.22ZM598.437 86.5C598.423 85.66 598.123 84.9867 597.537 84.48C596.95 83.9733 596.223 83.72 595.357 83.72C594.57 83.72 593.897 83.9733 593.337 84.48C592.777 84.9733 592.443 85.6467 592.337 86.5H598.437ZM605.341 83.58C605.674 83.02 606.114 82.5867 606.661 82.28C607.221 81.96 607.881 81.8 608.641 81.8V84.16H608.061C607.167 84.16 606.487 84.3867 606.021 84.84C605.567 85.2933 605.341 86.08 605.341 87.2V93H603.061V81.98H605.341V83.58ZM625.992 83.1C625.632 82.4067 625.132 81.8867 624.492 81.54C623.852 81.18 623.112 81 622.272 81C621.352 81 620.532 81.2067 619.812 81.62C619.092 82.0333 618.525 82.62 618.112 83.38C617.712 84.14 617.512 85.02 617.512 86.02C617.512 87.02 617.712 87.9067 618.112 88.68C618.525 89.44 619.092 90.0267 619.812 90.44C620.532 90.8533 621.352 91.06 622.272 91.06C623.512 91.06 624.518 90.7133 625.292 90.02C626.065 89.3267 626.538 88.3867 626.712 87.2H621.492V85.38H629.152V87.16C629.005 88.24 628.618 89.2333 627.992 90.14C627.378 91.0467 626.572 91.7733 625.572 92.32C624.585 92.8533 623.485 93.12 622.272 93.12C620.965 93.12 619.772 92.82 618.692 92.22C617.612 91.6067 616.752 90.76 616.112 89.68C615.485 88.6 615.172 87.38 615.172 86.02C615.172 84.66 615.485 83.44 616.112 82.36C616.752 81.28 617.612 80.44 618.692 79.84C619.785 79.2267 620.978 78.92 622.272 78.92C623.752 78.92 625.065 79.2867 626.212 80.02C627.372 80.74 628.212 81.7667 628.732 83.1H625.992ZM641.38 81.98V93H639.1V91.7C638.74 92.1533 638.267 92.5133 637.68 92.78C637.107 93.0333 636.494 93.16 635.84 93.16C634.974 93.16 634.194 92.98 633.5 92.62C632.82 92.26 632.28 91.7267 631.88 91.02C631.494 90.3133 631.3 89.46 631.3 88.46V81.98H633.56V88.12C633.56 89.1067 633.807 89.8667 634.3 90.4C634.794 90.92 635.467 91.18 636.32 91.18C637.174 91.18 637.847 90.92 638.34 90.4C638.847 89.8667 639.1 89.1067 639.1 88.12V81.98H641.38ZM645.549 80.52C645.135 80.52 644.789 80.38 644.509 80.1C644.229 79.82 644.089 79.4733 644.089 79.06C644.089 78.6467 644.229 78.3 644.509 78.02C644.789 77.74 645.135 77.6 645.549 77.6C645.949 77.6 646.289 77.74 646.569 78.02C646.849 78.3 646.989 78.6467 646.989 79.06C646.989 79.4733 646.849 79.82 646.569 80.1C646.289 80.38 645.949 80.52 645.549 80.52ZM646.669 81.98V93H644.389V81.98H646.669ZM648.902 87.44C648.902 86.3333 649.129 85.3533 649.582 84.5C650.049 83.6467 650.675 82.9867 651.462 82.52C652.262 82.04 653.149 81.8 654.122 81.8C654.842 81.8 655.549 81.96 656.242 82.28C656.949 82.5867 657.509 83 657.922 83.52V78.2H660.222V93H657.922V91.34C657.549 91.8733 657.029 92.3133 656.362 92.66C655.709 93.0067 654.955 93.18 654.102 93.18C653.142 93.18 652.262 92.94 651.462 92.46C650.675 91.9667 650.049 91.2867 649.582 90.42C649.129 89.54 648.902 88.5467 648.902 87.44ZM657.922 87.48C657.922 86.72 657.762 86.06 657.442 85.5C657.135 84.94 656.729 84.5133 656.222 84.22C655.715 83.9267 655.169 83.78 654.582 83.78C653.995 83.78 653.449 83.9267 652.942 84.22C652.435 84.5 652.022 84.92 651.702 85.48C651.395 86.0267 651.242 86.68 651.242 87.44C651.242 88.2 651.395 88.8667 651.702 89.44C652.022 90.0133 652.435 90.4533 652.942 90.76C653.462 91.0533 654.009 91.2 654.582 91.2C655.169 91.2 655.715 91.0533 656.222 90.76C656.729 90.4667 657.135 90.04 657.442 89.48C657.762 88.9067 657.922 88.24 657.922 87.48ZM673.317 87.22C673.317 87.6333 673.29 88.0067 673.237 88.34H664.817C664.883 89.22 665.21 89.9267 665.797 90.46C666.383 90.9933 667.103 91.26 667.957 91.26C669.183 91.26 670.05 90.7467 670.557 89.72H673.017C672.683 90.7333 672.077 91.5667 671.197 92.22C670.33 92.86 669.25 93.18 667.957 93.18C666.903 93.18 665.957 92.9467 665.117 92.48C664.29 92 663.637 91.3333 663.157 90.48C662.69 89.6133 662.457 88.6133 662.457 87.48C662.457 86.3467 662.683 85.3533 663.137 84.5C663.603 83.6333 664.25 82.9667 665.077 82.5C665.917 82.0333 666.877 81.8 667.957 81.8C668.997 81.8 669.923 82.0267 670.737 82.48C671.55 82.9333 672.183 83.5733 672.637 84.4C673.09 85.2133 673.317 86.1533 673.317 87.22ZM670.937 86.5C670.923 85.66 670.623 84.9867 670.037 84.48C669.45 83.9733 668.723 83.72 667.857 83.72C667.07 83.72 666.397 83.9733 665.837 84.48C665.277 84.9733 664.943 85.6467 664.837 86.5H670.937ZM679.561 93.18C678.694 93.18 677.914 93.0267 677.221 92.72C676.541 92.4 676.001 91.9733 675.601 91.44C675.201 90.8933 674.987 90.2867 674.961 89.62H677.321C677.361 90.0867 677.581 90.48 677.981 90.8C678.394 91.1067 678.907 91.26 679.521 91.26C680.161 91.26 680.654 91.14 681.001 90.9C681.361 90.6467 681.541 90.3267 681.541 89.94C681.541 89.5267 681.341 89.22 680.941 89.02C680.554 88.82 679.934 88.6 679.081 88.36C678.254 88.1333 677.581 87.9133 677.061 87.7C676.541 87.4867 676.087 87.16 675.701 86.72C675.327 86.28 675.141 85.7 675.141 84.98C675.141 84.3933 675.314 83.86 675.661 83.38C676.007 82.8867 676.501 82.5 677.141 82.22C677.794 81.94 678.541 81.8 679.381 81.8C680.634 81.8 681.641 82.12 682.401 82.76C683.174 83.3867 683.587 84.2467 683.641 85.34H681.361C681.321 84.8467 681.121 84.4533 680.761 84.16C680.401 83.8667 679.914 83.72 679.301 83.72C678.701 83.72 678.241 83.8333 677.921 84.06C677.601 84.2867 677.441 84.5867 677.441 84.96C677.441 85.2533 677.547 85.5 677.761 85.7C677.974 85.9 678.234 86.06 678.541 86.18C678.847 86.2867 679.301 86.4267 679.901 86.6C680.701 86.8133 681.354 87.0333 681.861 87.26C682.381 87.4733 682.827 87.7933 683.201 88.22C683.574 88.6467 683.767 89.2133 683.781 89.92C683.781 90.5467 683.607 91.1067 683.261 91.6C682.914 92.0933 682.421 92.48 681.781 92.76C681.154 93.04 680.414 93.18 679.561 93.18Z" fill="#3B3C45"/>
<path d="M631 23C623.832 23 618 28.832 618 36C618 43.168 623.832 49 631 49C638.168 49 644 43.168 644 36C644 28.832 638.168 23 631 23ZM630.75 34.5H631.25C633.318 34.5 635 36.182 635 38.25C635 39.876 633.952 41.252 632.5 41.77V42.5C632.5 43.328 631.828 44 631 44C630.172 44 629.5 43.328 629.5 42.5V42H628.5C627.672 42 627 41.328 627 40.5C627 39.672 627.672 39 628.5 39H631.25C631.664 39 632 38.664 632 38.25C632 37.836 631.664 37.5 631.25 37.5H630.75C628.682 37.5 627 35.818 627 33.75C627 32.124 628.048 30.748 629.5 30.23V29.5C629.5 28.672 630.172 28 631 28C631.828 28 632.5 28.672 632.5 29.5V30H633.5C634.328 30 635 30.672 635 31.5C635 32.328 634.328 33 633.5 33H630.75C630.336 33 630 33.336 630 33.75C630 34.164 630.336 34.5 630.75 34.5Z" fill="#F7A804"/>
<path d="M630 12.916V5.00004C630 3.89404 629.104 3.00004 628 3.00004C626.896 3.00004 626 3.89404 626 5.00004V9.00404L618.398 1.57004C617.62 0.808035 616.378 0.808035 615.602 1.57004L596.878 19.874C596.32 20.438 596 21.212 596 22C596 23.654 597.346 25 599 25H602V36C602 38.758 604.244 41 607 41H612C613.104 41 614 40.106 614 39C614 37.894 613.104 37 612 37H607C606.448 37 606 36.55 606 36V23C606 21.894 605.104 21 604 21H601.446L617 5.79604L630.102 18.608C630.894 19.382 632.158 19.368 632.93 18.576C633.702 17.786 633.688 16.52 632.898 15.748L630 12.916Z" fill="#3B3C45"/>
<path d="M575.139 112.228V122H573.179V117.842H568.993V122H567.033V112.228H568.993V116.246H573.179V112.228H575.139ZM580.513 122.126C579.766 122.126 579.094 121.963 578.497 121.636C577.899 121.3 577.428 120.829 577.083 120.222C576.747 119.615 576.579 118.915 576.579 118.122C576.579 117.329 576.751 116.629 577.097 116.022C577.451 115.415 577.932 114.949 578.539 114.622C579.145 114.286 579.822 114.118 580.569 114.118C581.315 114.118 581.992 114.286 582.599 114.622C583.205 114.949 583.681 115.415 584.027 116.022C584.381 116.629 584.559 117.329 584.559 118.122C584.559 118.915 584.377 119.615 584.013 120.222C583.658 120.829 583.173 121.3 582.557 121.636C581.95 121.963 581.269 122.126 580.513 122.126ZM580.513 120.418C580.867 120.418 581.199 120.334 581.507 120.166C581.824 119.989 582.076 119.727 582.263 119.382C582.449 119.037 582.543 118.617 582.543 118.122C582.543 117.385 582.347 116.82 581.955 116.428C581.572 116.027 581.101 115.826 580.541 115.826C579.981 115.826 579.509 116.027 579.127 116.428C578.753 116.82 578.567 117.385 578.567 118.122C578.567 118.859 578.749 119.429 579.113 119.83C579.486 120.222 579.953 120.418 580.513 120.418ZM596.748 114.244L594.48 122H592.366L590.952 116.582L589.538 122H587.41L585.128 114.244H587.116L588.488 120.152L589.972 114.244H592.044L593.5 120.138L594.872 114.244H596.748ZM603.427 115.854V119.606C603.427 119.867 603.487 120.059 603.609 120.18C603.739 120.292 603.954 120.348 604.253 120.348H605.163V122H603.931C602.279 122 601.453 121.197 601.453 119.592V115.854H600.529V114.244H601.453V112.326H603.427V114.244H605.163V115.854H603.427ZM610.016 122.126C609.27 122.126 608.598 121.963 608 121.636C607.403 121.3 606.932 120.829 606.586 120.222C606.25 119.615 606.082 118.915 606.082 118.122C606.082 117.329 606.255 116.629 606.6 116.022C606.955 115.415 607.436 114.949 608.042 114.622C608.649 114.286 609.326 114.118 610.072 114.118C610.819 114.118 611.496 114.286 612.102 114.622C612.709 114.949 613.185 115.415 613.53 116.022C613.885 116.629 614.062 117.329 614.062 118.122C614.062 118.915 613.88 119.615 613.516 120.222C613.162 120.829 612.676 121.3 612.06 121.636C611.454 121.963 610.772 122.126 610.016 122.126ZM610.016 120.418C610.371 120.418 610.702 120.334 611.01 120.166C611.328 119.989 611.58 119.727 611.766 119.382C611.953 119.037 612.046 118.617 612.046 118.122C612.046 117.385 611.85 116.82 611.458 116.428C611.076 116.027 610.604 115.826 610.044 115.826C609.484 115.826 609.013 116.027 608.63 116.428C608.257 116.82 608.07 117.385 608.07 118.122C608.07 118.859 608.252 119.429 608.616 119.83C608.99 120.222 609.456 120.418 610.016 120.418ZM621.804 122.126C621.169 122.126 620.6 122.014 620.096 121.79C619.592 121.557 619.191 121.244 618.892 120.852C618.603 120.46 618.444 120.026 618.416 119.55H620.39C620.427 119.849 620.572 120.096 620.824 120.292C621.085 120.488 621.407 120.586 621.79 120.586C622.163 120.586 622.453 120.511 622.658 120.362C622.873 120.213 622.98 120.021 622.98 119.788C622.98 119.536 622.849 119.349 622.588 119.228C622.336 119.097 621.93 118.957 621.37 118.808C620.791 118.668 620.315 118.523 619.942 118.374C619.578 118.225 619.261 117.996 618.99 117.688C618.729 117.38 618.598 116.965 618.598 116.442C618.598 116.013 618.719 115.621 618.962 115.266C619.214 114.911 619.569 114.631 620.026 114.426C620.493 114.221 621.039 114.118 621.664 114.118C622.588 114.118 623.325 114.351 623.876 114.818C624.427 115.275 624.73 115.896 624.786 116.68H622.91C622.882 116.372 622.751 116.129 622.518 115.952C622.294 115.765 621.991 115.672 621.608 115.672C621.253 115.672 620.978 115.737 620.782 115.868C620.595 115.999 620.502 116.181 620.502 116.414C620.502 116.675 620.633 116.876 620.894 117.016C621.155 117.147 621.561 117.282 622.112 117.422C622.672 117.562 623.134 117.707 623.498 117.856C623.862 118.005 624.175 118.239 624.436 118.556C624.707 118.864 624.847 119.275 624.856 119.788C624.856 120.236 624.73 120.637 624.478 120.992C624.235 121.347 623.881 121.627 623.414 121.832C622.957 122.028 622.42 122.126 621.804 122.126ZM633.675 117.954C633.675 118.234 633.656 118.486 633.619 118.71H627.949C627.996 119.27 628.192 119.709 628.537 120.026C628.882 120.343 629.307 120.502 629.811 120.502C630.539 120.502 631.057 120.189 631.365 119.564H633.479C633.255 120.311 632.826 120.927 632.191 121.412C631.556 121.888 630.777 122.126 629.853 122.126C629.106 122.126 628.434 121.963 627.837 121.636C627.249 121.3 626.787 120.829 626.451 120.222C626.124 119.615 625.961 118.915 625.961 118.122C625.961 117.319 626.124 116.615 626.451 116.008C626.778 115.401 627.235 114.935 627.823 114.608C628.411 114.281 629.088 114.118 629.853 114.118C630.59 114.118 631.248 114.277 631.827 114.594C632.415 114.911 632.868 115.364 633.185 115.952C633.512 116.531 633.675 117.198 633.675 117.954ZM631.645 117.394C631.636 116.89 631.454 116.489 631.099 116.19C630.744 115.882 630.31 115.728 629.797 115.728C629.312 115.728 628.901 115.877 628.565 116.176C628.238 116.465 628.038 116.871 627.963 117.394H631.645ZM637.066 111.64V122H635.106V111.64H637.066ZM640.962 111.64V122H639.002V111.64H640.962Z" fill="#0689FF"/>
<path d="M671.24 121.68C671.113 121.85 670.923 121.962 670.713 121.992C670.503 122.022 670.29 121.967 670.12 121.84C669.95 121.713 669.838 121.523 669.808 121.313C669.778 121.103 669.833 120.89 669.96 120.72L671.4 118.8L650.8 118.8C650.588 118.8 650.384 118.716 650.234 118.566C650.084 118.416 650 118.212 650 118C650 117.788 650.084 117.584 650.234 117.434C650.384 117.284 650.588 117.2 650.8 117.2L671.4 117.2L669.96 115.28C669.897 115.196 669.851 115.1 669.825 114.999C669.799 114.897 669.793 114.791 669.808 114.687C669.823 114.583 669.858 114.483 669.912 114.392C669.965 114.302 670.036 114.223 670.12 114.16C670.204 114.097 670.3 114.051 670.401 114.025C670.503 113.999 670.609 113.993 670.713 114.008C670.817 114.023 670.917 114.058 671.008 114.112C671.098 114.165 671.177 114.236 671.24 114.32L673.635 117.514L673.646 117.527L674 118L673.646 118.472L673.635 118.486L671.24 121.68Z" fill="#0689FF"/>
<path d="M9.06305 85.86C9.80971 85.9933 10.443 86.3867 10.963 87.04C11.483 87.6933 11.743 88.4333 11.743 89.26C11.743 89.9667 11.5564 90.6067 11.183 91.18C10.823 91.74 10.2964 92.1867 9.60305 92.52C8.90971 92.84 8.10305 93 7.18305 93H1.62305V79.1H6.92305C7.86971 79.1 8.68305 79.26 9.36305 79.58C10.043 79.9 10.5564 80.3333 10.903 80.88C11.2497 81.4133 11.423 82.0133 11.423 82.68C11.423 83.48 11.2097 84.1467 10.783 84.68C10.3564 85.2133 9.78305 85.6067 9.06305 85.86ZM3.90305 84.94H6.72305C7.46971 84.94 8.04971 84.7733 8.46305 84.44C8.88971 84.0933 9.10305 83.6 9.10305 82.96C9.10305 82.3333 8.88971 81.8467 8.46305 81.5C8.04971 81.14 7.46971 80.96 6.72305 80.96H3.90305V84.94ZM6.98305 91.14C7.75638 91.14 8.36305 90.9533 8.80305 90.58C9.24305 90.2067 9.46305 89.6867 9.46305 89.02C9.46305 88.34 9.22971 87.8 8.76305 87.4C8.29638 87 7.67638 86.8 6.90305 86.8H3.90305V91.14H6.98305ZM24.2007 81.98V93H21.9207V91.7C21.5607 92.1533 21.0874 92.5133 20.5007 92.78C19.9274 93.0333 19.314 93.16 18.6607 93.16C17.794 93.16 17.014 92.98 16.3207 92.62C15.6407 92.26 15.1007 91.7267 14.7007 91.02C14.314 90.3133 14.1207 89.46 14.1207 88.46V81.98H16.3807V88.12C16.3807 89.1067 16.6274 89.8667 17.1207 90.4C17.614 90.92 18.2874 91.18 19.1407 91.18C19.994 91.18 20.6674 90.92 21.1607 90.4C21.6674 89.8667 21.9207 89.1067 21.9207 88.12V81.98H24.2007ZM37.129 81.98L30.369 98.18H28.009L30.249 92.82L25.909 81.98H28.449L31.549 90.38L34.769 81.98H37.129ZM48.9496 87.22C48.9496 87.6333 48.9229 88.0067 48.8696 88.34H40.4496C40.5163 89.22 40.8429 89.9267 41.4296 90.46C42.0163 90.9933 42.7363 91.26 43.5896 91.26C44.8163 91.26 45.6829 90.7467 46.1896 89.72H48.6496C48.3163 90.7333 47.7096 91.5667 46.8296 92.22C45.9629 92.86 44.8829 93.18 43.5896 93.18C42.5363 93.18 41.5896 92.9467 40.7496 92.48C39.9229 92 39.2696 91.3333 38.7896 90.48C38.3229 89.6133 38.0896 88.6133 38.0896 87.48C38.0896 86.3467 38.3163 85.3533 38.7696 84.5C39.2363 83.6333 39.8829 82.9667 40.7096 82.5C41.5496 82.0333 42.5096 81.8 43.5896 81.8C44.6296 81.8 45.5563 82.0267 46.3696 82.48C47.1829 82.9333 47.8163 83.5733 48.2696 84.4C48.7229 85.2133 48.9496 86.1533 48.9496 87.22ZM46.5696 86.5C46.5563 85.66 46.2563 84.9867 45.6696 84.48C45.0829 83.9733 44.3563 83.72 43.4896 83.72C42.7029 83.72 42.0296 83.9733 41.4696 84.48C40.9096 84.9733 40.5763 85.6467 40.4696 86.5H46.5696ZM53.4734 83.58C53.8067 83.02 54.2467 82.5867 54.7934 82.28C55.3534 81.96 56.0134 81.8 56.7734 81.8V84.16H56.1934C55.3 84.16 54.62 84.3867 54.1534 84.84C53.7 85.2933 53.4734 86.08 53.4734 87.2V93H51.1934V81.98H53.4734V83.58ZM74.1245 83.1C73.7645 82.4067 73.2645 81.8867 72.6245 81.54C71.9845 81.18 71.2445 81 70.4045 81C69.4845 81 68.6645 81.2067 67.9445 81.62C67.2245 82.0333 66.6578 82.62 66.2445 83.38C65.8445 84.14 65.6445 85.02 65.6445 86.02C65.6445 87.02 65.8445 87.9067 66.2445 88.68C66.6578 89.44 67.2245 90.0267 67.9445 90.44C68.6645 90.8533 69.4845 91.06 70.4045 91.06C71.6445 91.06 72.6511 90.7133 73.4245 90.02C74.1978 89.3267 74.6711 88.3867 74.8445 87.2H69.6245V85.38H77.2845V87.16C77.1378 88.24 76.7511 89.2333 76.1245 90.14C75.5111 91.0467 74.7045 91.7733 73.7045 92.32C72.7178 92.8533 71.6178 93.12 70.4045 93.12C69.0978 93.12 67.9045 92.82 66.8245 92.22C65.7445 91.6067 64.8845 90.76 64.2445 89.68C63.6178 88.6 63.3045 87.38 63.3045 86.02C63.3045 84.66 63.6178 83.44 64.2445 82.36C64.8845 81.28 65.7445 80.44 66.8245 79.84C67.9178 79.2267 69.1111 78.92 70.4045 78.92C71.8845 78.92 73.1978 79.2867 74.3445 80.02C75.5045 80.74 76.3445 81.7667 76.8645 83.1H74.1245ZM89.5132 81.98V93H87.2332V91.7C86.8732 92.1533 86.3999 92.5133 85.8132 92.78C85.2399 93.0333 84.6265 93.16 83.9732 93.16C83.1065 93.16 82.3265 92.98 81.6332 92.62C80.9532 92.26 80.4132 91.7267 80.0132 91.02C79.6265 90.3133 79.4332 89.46 79.4332 88.46V81.98H81.6932V88.12C81.6932 89.1067 81.9399 89.8667 82.4332 90.4C82.9265 90.92 83.5999 91.18 84.4532 91.18C85.3065 91.18 85.9799 90.92 86.4732 90.4C86.9799 89.8667 87.2332 89.1067 87.2332 88.12V81.98H89.5132ZM93.6815 80.52C93.2682 80.52 92.9215 80.38 92.6415 80.1C92.3615 79.82 92.2215 79.4733 92.2215 79.06C92.2215 78.6467 92.3615 78.3 92.6415 78.02C92.9215 77.74 93.2682 77.6 93.6815 77.6C94.0815 77.6 94.4215 77.74 94.7015 78.02C94.9815 78.3 95.1215 78.6467 95.1215 79.06C95.1215 79.4733 94.9815 79.82 94.7015 80.1C94.4215 80.38 94.0815 80.52 93.6815 80.52ZM94.8015 81.98V93H92.5215V81.98H94.8015ZM97.0349 87.44C97.0349 86.3333 97.2616 85.3533 97.7149 84.5C98.1816 83.6467 98.8083 82.9867 99.5949 82.52C100.395 82.04 101.282 81.8 102.255 81.8C102.975 81.8 103.682 81.96 104.375 82.28C105.082 82.5867 105.642 83 106.055 83.52V78.2H108.355V93H106.055V91.34C105.682 91.8733 105.162 92.3133 104.495 92.66C103.842 93.0067 103.088 93.18 102.235 93.18C101.275 93.18 100.395 92.94 99.5949 92.46C98.8083 91.9667 98.1816 91.2867 97.7149 90.42C97.2616 89.54 97.0349 88.5467 97.0349 87.44ZM106.055 87.48C106.055 86.72 105.895 86.06 105.575 85.5C105.268 84.94 104.862 84.5133 104.355 84.22C103.848 83.9267 103.302 83.78 102.715 83.78C102.128 83.78 101.582 83.9267 101.075 84.22C100.568 84.5 100.155 84.92 99.8349 85.48C99.5283 86.0267 99.3749 86.68 99.3749 87.44C99.3749 88.2 99.5283 88.8667 99.8349 89.44C100.155 90.0133 100.568 90.4533 101.075 90.76C101.595 91.0533 102.142 91.2 102.715 91.2C103.302 91.2 103.848 91.0533 104.355 90.76C104.862 90.4667 105.268 90.04 105.575 89.48C105.895 88.9067 106.055 88.24 106.055 87.48ZM121.45 87.22C121.45 87.6333 121.423 88.0067 121.37 88.34H112.95C113.016 89.22 113.343 89.9267 113.93 90.46C114.516 90.9933 115.236 91.26 116.09 91.26C117.316 91.26 118.183 90.7467 118.69 89.72H121.15C120.816 90.7333 120.21 91.5667 119.33 92.22C118.463 92.86 117.383 93.18 116.09 93.18C115.036 93.18 114.09 92.9467 113.25 92.48C112.423 92 111.77 91.3333 111.29 90.48C110.823 89.6133 110.59 88.6133 110.59 87.48C110.59 86.3467 110.816 85.3533 111.27 84.5C111.736 83.6333 112.383 82.9667 113.21 82.5C114.05 82.0333 115.01 81.8 116.09 81.8C117.13 81.8 118.056 82.0267 118.87 82.48C119.683 82.9333 120.316 83.5733 120.77 84.4C121.223 85.2133 121.45 86.1533 121.45 87.22ZM119.07 86.5C119.056 85.66 118.756 84.9867 118.17 84.48C117.583 83.9733 116.856 83.72 115.99 83.72C115.203 83.72 114.53 83.9733 113.97 84.48C113.41 84.9733 113.076 85.6467 112.97 86.5H119.07ZM127.693 93.18C126.827 93.18 126.047 93.0267 125.353 92.72C124.673 92.4 124.133 91.9733 123.733 91.44C123.333 90.8933 123.12 90.2867 123.093 89.62H125.453C125.493 90.0867 125.713 90.48 126.113 90.8C126.527 91.1067 127.04 91.26 127.653 91.26C128.293 91.26 128.787 91.14 129.133 90.9C129.493 90.6467 129.673 90.3267 129.673 89.94C129.673 89.5267 129.473 89.22 129.073 89.02C128.687 88.82 128.067 88.6 127.213 88.36C126.387 88.1333 125.713 87.9133 125.193 87.7C124.673 87.4867 124.22 87.16 123.833 86.72C123.46 86.28 123.273 85.7 123.273 84.98C123.273 84.3933 123.447 83.86 123.793 83.38C124.14 82.8867 124.633 82.5 125.273 82.22C125.927 81.94 126.673 81.8 127.513 81.8C128.767 81.8 129.773 82.12 130.533 82.76C131.307 83.3867 131.72 84.2467 131.773 85.34H129.493C129.453 84.8467 129.253 84.4533 128.893 84.16C128.533 83.8667 128.047 83.72 127.433 83.72C126.833 83.72 126.373 83.8333 126.053 84.06C125.733 84.2867 125.573 84.5867 125.573 84.96C125.573 85.2533 125.68 85.5 125.893 85.7C126.107 85.9 126.367 86.06 126.673 86.18C126.98 86.2867 127.433 86.4267 128.033 86.6C128.833 86.8133 129.487 87.0333 129.993 87.26C130.513 87.4733 130.96 87.7933 131.333 88.22C131.707 88.6467 131.9 89.2133 131.913 89.92C131.913 90.5467 131.74 91.1067 131.393 91.6C131.047 92.0933 130.553 92.48 129.913 92.76C129.287 93.04 128.547 93.18 127.693 93.18Z" fill="#3B3C45"/>
<path d="M90.9469 13.5043L87.7023 28.2131C87.3361 29.875 86.4081 31.3761 85.0897 32.4407C83.7673 33.5085 82.1014 34.0967 80.3993 34.0967C79.364 34.0967 78.5247 33.2573 78.5247 32.222C78.5247 31.1864 79.364 30.3474 80.3993 30.3474C82.1615 30.3474 83.6589 29.1378 84.0413 27.4056L87.2855 12.6968C87.5085 11.6857 88.5087 11.0466 89.5201 11.2697C90.5312 11.4927 91.1699 12.4932 90.9469 13.5043ZM85.9294 43.4698C85.9294 46.5193 83.4487 49 80.3993 49C77.3498 49 74.8691 46.5193 74.8691 43.4698C74.8691 42.8469 74.9742 42.2482 75.165 41.689H67.0747C67.2655 42.2482 67.3706 42.8469 67.3706 43.4698C67.3706 46.5193 64.8895 49 61.8401 49C58.791 49 56.3099 46.5193 56.3099 43.4698C56.3099 42.8469 56.415 42.2482 56.6058 41.689H55.8412C52.7405 41.689 50.2173 39.1661 50.2173 36.0651C50.2173 36.049 50.2195 36.0339 50.2198 36.0182C50.2195 36.0024 50.2173 35.9871 50.2173 35.9713C50.2173 33.6957 51.5767 31.7332 53.5249 30.8484L51.2965 10.3754C50.8662 7.17175 48.109 4.75842 44.8746 4.75842C43.8394 4.75842 43 3.91907 43 2.88379C43 1.84814 43.8394 1.00916 44.8746 1.00916C49.991 1.00916 54.3511 4.83459 55.0165 9.90698L55.0212 9.94836L57.2419 30.3474H71.0261C72.0614 30.3474 72.9008 31.1868 72.9008 32.222C72.9008 33.2573 72.0614 34.0967 71.0261 34.0967H55.8412C54.8077 34.0967 53.9666 34.9375 53.9666 35.9713C53.9666 35.9871 53.9647 36.0024 53.9644 36.0182C53.9647 36.0339 53.9666 36.0493 53.9666 36.0651C53.9666 37.0989 54.8077 37.9397 55.8412 37.9397H80.3993C83.4487 37.9397 85.9294 40.4204 85.9294 43.4698ZM61.8401 41.689C60.8583 41.689 60.0592 42.4877 60.0592 43.4698C60.0592 44.452 60.8583 45.2507 61.8401 45.2507C62.8223 45.2507 63.621 44.452 63.621 43.4698C63.621 42.4877 62.8223 41.689 61.8401 41.689ZM82.1802 43.4698C82.1802 42.4877 81.3811 41.689 80.3993 41.689C79.4171 41.689 78.6184 42.4877 78.6184 43.4698C78.6184 44.452 79.4171 45.2507 80.3993 45.2507C81.3811 45.2507 82.1802 44.4517 82.1802 43.4698ZM58.7632 12.9524C58.0685 12.1848 58.1274 10.9994 58.895 10.3047L67.6306 2.39856C69.6741 0.533813 72.7528 0.533813 74.7963 2.39856L83.5319 10.3047C84.2994 10.9994 84.3584 12.1848 83.6637 12.9524C83.2938 13.3615 82.7844 13.5691 82.2732 13.5691C81.9147 13.5691 81.5558 13.4651 81.2427 13.2582V18.5983C81.2427 21.5104 78.8751 23.8798 75.9652 23.8798H66.3679C63.458 23.8798 61.0905 21.5104 61.0905 18.5983V13.3175C60.3412 13.7507 59.3671 13.6196 58.7632 12.9524ZM64.8339 9.98645C64.8361 10.0245 64.8397 10.0626 64.8397 10.1011V18.5979C64.8397 19.4431 65.5253 20.1305 66.3679 20.1305H75.9652C76.8079 20.1305 77.4934 19.4431 77.4934 18.5979V10.1011C77.4934 10.0352 77.4971 9.96997 77.5037 9.90588L72.2771 5.17554C72.2749 5.17334 72.2723 5.17114 72.2701 5.16895C71.6677 4.61853 70.7592 4.61853 70.1567 5.16895C70.1545 5.17114 70.1523 5.17334 70.1501 5.17554L64.8339 9.98645Z" fill="#3B3C45"/>
<mask id="mask1_2_550" style="mask-type:alpha" maskUnits="userSpaceOnUse" x="43" y="1" width="48" height="48">
<path d="M90.9469 13.5043L87.7023 28.2131C87.3361 29.875 86.4081 31.3761 85.0897 32.4407C83.7673 33.5085 82.1014 34.0967 80.3993 34.0967C79.364 34.0967 78.5247 33.2573 78.5247 32.222C78.5247 31.1864 79.364 30.3474 80.3993 30.3474C82.1615 30.3474 83.6589 29.1378 84.0413 27.4056L87.2855 12.6968C87.5085 11.6857 88.5087 11.0466 89.5201 11.2697C90.5312 11.4927 91.1699 12.4932 90.9469 13.5043ZM85.9294 43.4698C85.9294 46.5193 83.4487 49 80.3993 49C77.3498 49 74.8691 46.5193 74.8691 43.4698C74.8691 42.8469 74.9742 42.2482 75.165 41.689H67.0747C67.2655 42.2482 67.3706 42.8469 67.3706 43.4698C67.3706 46.5193 64.8895 49 61.8401 49C58.791 49 56.3099 46.5193 56.3099 43.4698C56.3099 42.8469 56.415 42.2482 56.6058 41.689H55.8412C52.7405 41.689 50.2173 39.1661 50.2173 36.0651C50.2173 36.049 50.2195 36.0339 50.2198 36.0182C50.2195 36.0024 50.2173 35.9871 50.2173 35.9713C50.2173 33.6957 51.5767 31.7332 53.5249 30.8484L51.2965 10.3754C50.8662 7.17175 48.109 4.75842 44.8746 4.75842C43.8394 4.75842 43 3.91907 43 2.88379C43 1.84814 43.8394 1.00916 44.8746 1.00916C49.991 1.00916 54.3511 4.83459 55.0165 9.90698L55.0212 9.94836L57.2419 30.3474H71.0261C72.0614 30.3474 72.9008 31.1868 72.9008 32.222C72.9008 33.2573 72.0614 34.0967 71.0261 34.0967H55.8412C54.8077 34.0967 53.9666 34.9375 53.9666 35.9713C53.9666 35.9871 53.9647 36.0024 53.9644 36.0182C53.9647 36.0339 53.9666 36.0493 53.9666 36.0651C53.9666 37.0989 54.8077 37.9397 55.8412 37.9397H80.3993C83.4487 37.9397 85.9294 40.4204 85.9294 43.4698ZM61.8401 41.689C60.8583 41.689 60.0592 42.4877 60.0592 43.4698C60.0592 44.452 60.8583 45.2507 61.8401 45.2507C62.8223 45.2507 63.621 44.452 63.621 43.4698C63.621 42.4877 62.8223 41.689 61.8401 41.689ZM82.1802 43.4698C82.1802 42.4877 81.3811 41.689 80.3993 41.689C79.4171 41.689 78.6184 42.4877 78.6184 43.4698C78.6184 44.452 79.4171 45.2507 80.3993 45.2507C81.3811 45.2507 82.1802 44.4517 82.1802 43.4698ZM58.7632 12.9524C58.0685 12.1848 58.1274 10.9994 58.895 10.3047L67.6306 2.39856C69.6741 0.533813 72.7528 0.533813 74.7963 2.39856L83.5319 10.3047C84.2994 10.9994 84.3584 12.1848 83.6637 12.9524C83.2938 13.3615 82.7844 13.5691 82.2732 13.5691C81.9147 13.5691 81.5558 13.4651 81.2427 13.2582V18.5983C81.2427 21.5104 78.8751 23.8798 75.9652 23.8798H66.3679C63.458 23.8798 61.0905 21.5104 61.0905 18.5983V13.3175C60.3412 13.7507 59.3671 13.6196 58.7632 12.9524ZM64.8339 9.98645C64.8361 10.0245 64.8397 10.0626 64.8397 10.1011V18.5979C64.8397 19.4431 65.5253 20.1305 66.3679 20.1305H75.9652C76.8079 20.1305 77.4934 19.4431 77.4934 18.5979V10.1011C77.4934 10.0352 77.4971 9.96997 77.5037 9.90588L72.2771 5.17554C72.2749 5.17334 72.2723 5.17114 72.2701 5.16895C71.6677 4.61853 70.7592 4.61853 70.1567 5.16895C70.1545 5.17114 70.1523 5.17334 70.1501 5.17554L64.8339 9.98645Z" fill="#3B3C45"/>
</mask>
<g mask="url(#mask1_2_550)">
<rect x="58" y="-7" width="26" height="32" fill="#F7A804"/>
</g>
<path d="M120.24 121.68C120.113 121.85 119.923 121.962 119.713 121.992C119.503 122.022 119.29 121.967 119.12 121.84C118.95 121.713 118.838 121.523 118.808 121.313C118.778 121.103 118.833 120.89 118.96 120.72L120.4 118.8L99.8 118.8C99.5878 118.8 99.3843 118.716 99.2343 118.566C99.0843 118.416 99 118.212 99 118C99 117.788 99.0843 117.584 99.2343 117.434C99.3843 117.284 99.5878 117.2 99.8 117.2L120.4 117.2L118.96 115.28C118.897 115.196 118.851 115.1 118.825 114.999C118.799 114.897 118.793 114.791 118.808 114.687C118.823 114.583 118.858 114.483 118.912 114.392C118.965 114.302 119.036 114.223 119.12 114.16C119.204 114.097 119.3 114.051 119.401 114.025C119.503 113.999 119.609 113.993 119.713 114.008C119.817 114.023 119.917 114.058 120.008 114.112C120.098 114.165 120.177 114.236 120.24 114.32L122.635 117.514L122.646 117.527L123 118L122.646 118.472L122.635 118.486L120.24 121.68Z" fill="#0689FF"/>
<path d="M20.5603 112.228V122H18.6003V117.842H14.4143V122H12.4543V112.228H14.4143V116.246H18.6003V112.228H20.5603ZM25.9334 122.126C25.1868 122.126 24.5148 121.963 23.9174 121.636C23.3201 121.3 22.8488 120.829 22.5034 120.222C22.1674 119.615 21.9994 118.915 21.9994 118.122C21.9994 117.329 22.1721 116.629 22.5174 116.022C22.8721 115.415 23.3528 114.949 23.9594 114.622C24.5661 114.286 25.2428 114.118 25.9894 114.118C26.7361 114.118 27.4128 114.286 28.0194 114.622C28.6261 114.949 29.1021 115.415 29.4474 116.022C29.8021 116.629 29.9794 117.329 29.9794 118.122C29.9794 118.915 29.7974 119.615 29.4334 120.222C29.0788 120.829 28.5934 121.3 27.9774 121.636C27.3708 121.963 26.6894 122.126 25.9334 122.126ZM25.9334 120.418C26.2881 120.418 26.6194 120.334 26.9274 120.166C27.2448 119.989 27.4968 119.727 27.6834 119.382C27.8701 119.037 27.9634 118.617 27.9634 118.122C27.9634 117.385 27.7674 116.82 27.3754 116.428C26.9928 116.027 26.5214 115.826 25.9614 115.826C25.4014 115.826 24.9301 116.027 24.5474 116.428C24.1741 116.82 23.9874 117.385 23.9874 118.122C23.9874 118.859 24.1694 119.429 24.5334 119.83C24.9068 120.222 25.3734 120.418 25.9334 120.418ZM42.1692 114.244L39.9012 122H37.7872L36.3732 116.582L34.9592 122H32.8312L30.5492 114.244H32.5372L33.9092 120.152L35.3932 114.244H37.4652L38.9212 120.138L40.2932 114.244H42.1692ZM48.8476 115.854V119.606C48.8476 119.867 48.9083 120.059 49.0296 120.18C49.1603 120.292 49.3749 120.348 49.6736 120.348H50.5836V122H49.3516C47.6996 122 46.8736 121.197 46.8736 119.592V115.854H45.9496V114.244H46.8736V112.326H48.8476V114.244H50.5836V115.854H48.8476ZM55.4373 122.126C54.6907 122.126 54.0187 121.963 53.4213 121.636C52.824 121.3 52.3527 120.829 52.0073 120.222C51.6713 119.615 51.5033 118.915 51.5033 118.122C51.5033 117.329 51.676 116.629 52.0213 116.022C52.376 115.415 52.8567 114.949 53.4633 114.622C54.07 114.286 54.7467 114.118 55.4933 114.118C56.24 114.118 56.9167 114.286 57.5233 114.622C58.13 114.949 58.606 115.415 58.9513 116.022C59.306 116.629 59.4833 117.329 59.4833 118.122C59.4833 118.915 59.3013 119.615 58.9373 120.222C58.5827 120.829 58.0973 121.3 57.4813 121.636C56.8747 121.963 56.1933 122.126 55.4373 122.126ZM55.4373 120.418C55.792 120.418 56.1233 120.334 56.4313 120.166C56.7487 119.989 57.0007 119.727 57.1873 119.382C57.374 119.037 57.4673 118.617 57.4673 118.122C57.4673 117.385 57.2713 116.82 56.8793 116.428C56.4967 116.027 56.0253 115.826 55.4653 115.826C54.9053 115.826 54.434 116.027 54.0513 116.428C53.678 116.82 53.4913 117.385 53.4913 118.122C53.4913 118.859 53.6733 119.429 54.0373 119.83C54.4107 120.222 54.8773 120.418 55.4373 120.418ZM66.217 115.378C66.469 115.005 66.8143 114.701 67.253 114.468C67.701 114.235 68.2097 114.118 68.779 114.118C69.4417 114.118 70.039 114.281 70.571 114.608C71.1123 114.935 71.537 115.401 71.845 116.008C72.1623 116.605 72.321 117.301 72.321 118.094C72.321 118.887 72.1623 119.592 71.845 120.208C71.537 120.815 71.1123 121.286 70.571 121.622C70.039 121.958 69.4417 122.126 68.779 122.126C68.2003 122.126 67.6917 122.014 67.253 121.79C66.8237 121.557 66.4783 121.258 66.217 120.894V122H64.257V111.64H66.217V115.378ZM70.319 118.094C70.319 117.627 70.221 117.226 70.025 116.89C69.8383 116.545 69.5863 116.283 69.269 116.106C68.961 115.929 68.625 115.84 68.261 115.84C67.9063 115.84 67.5703 115.933 67.253 116.12C66.945 116.297 66.693 116.559 66.497 116.904C66.3103 117.249 66.217 117.655 66.217 118.122C66.217 118.589 66.3103 118.995 66.497 119.34C66.693 119.685 66.945 119.951 67.253 120.138C67.5703 120.315 67.9063 120.404 68.261 120.404C68.625 120.404 68.961 120.311 69.269 120.124C69.5863 119.937 69.8383 119.671 70.025 119.326C70.221 118.981 70.319 118.57 70.319 118.094ZM81.0673 114.244V122H79.0933V121.02C78.8413 121.356 78.51 121.622 78.0993 121.818C77.698 122.005 77.2593 122.098 76.7833 122.098C76.1766 122.098 75.64 121.972 75.1733 121.72C74.7066 121.459 74.338 121.081 74.0673 120.586C73.806 120.082 73.6753 119.485 73.6753 118.794V114.244H75.6353V118.514C75.6353 119.13 75.7893 119.606 76.0973 119.942C76.4053 120.269 76.8253 120.432 77.3573 120.432C77.8986 120.432 78.3233 120.269 78.6313 119.942C78.9393 119.606 79.0933 119.13 79.0933 118.514V114.244H81.0673ZM90.4212 114.244L85.6192 125.668H83.5332L85.2132 121.804L82.1052 114.244H84.3032L86.3052 119.662L88.3352 114.244H90.4212Z" fill="#0689FF"/>
<defs>
<clipPath id="clip0_2_550">
<rect width="24" height="24" fill="white" transform="translate(400 106) rotate(90)"/>
</clipPath>
</defs>
</svg>
